<?xml version="1.0" encoding="UTF-8"?>
<svg width="217px" height="64px" viewBox="0 0 217 64" version="1.1" xmlns="http://www.w3.org/2000/svg" xmlns:xlink="http://www.w3.org/1999/xlink">
    <!-- Generator: Sketch 42 (36781) - http://www.bohemiancoding.com/sketch -->
    <title>Logo</title>
    <desc>Created with Sketch.</desc>
    <defs></defs>
    <g id="Symbols" stroke="none" stroke-width="1" fill="none" fill-rule="evenodd">
        <g id="footer-alt" transform="translate(-72.000000, -434.000000)" fill-rule="nonzero" fill="#FFFFFF">
            <g id="footer" transform="translate(0.000000, 5.000000)">
                <g id="copyright" transform="translate(0.000000, 403.000000)">
                    <g id="Springster_Logo_Horizontal_White_RGB" transform="translate(72.000000, 26.000000)">
                        <g id="Artwork">
                            <path d="M137.819338,51.8178016 C142.389544,51.8178016 146.810072,48.4961102 148.376715,43.5235182 L152.797242,29.6300961 C153.226323,28.3471673 152.467948,26.925006 151.180706,26.4973631 C150.083058,26.169172 148.895603,26.6365957 148.276928,27.5913334 C144.135802,34.4236748 140.523543,37.8845988 138.23844,38.7299395 C138.188546,38.5907069 138.188546,38.4017484 138.188546,38.2525706 C138.188546,31.947324 143.088048,25.0254759 149.414491,25.0254759 C150.322545,25.0254759 151.270514,25.1249277 152.318268,25.5028447 C153.60551,25.8807617 155.032452,25.1746536 155.461533,23.8917249 C155.84072,22.6087962 155.132239,21.1866349 153.844997,20.7589919 C152.228461,20.2816231 150.801519,20.0926646 149.424469,20.0926646 C140.812923,20.0926646 133.159323,29.3416858 133.159323,38.3918032 C133.159323,42.9864782 135.584127,44.0307226 137.390257,44.0307226 C139.385981,44.0307226 141.671084,42.7477938 144.814348,39.0481854 L143.906294,41.9919598 C142.99824,44.7865565 140.623329,46.8750452 137.819338,46.8750452 C136.681775,46.8750452 135.444427,46.5468541 134.446565,45.8308009 C133.39881,45.025241 131.782274,45.3136513 131.023899,46.3976764 C130.215631,47.4419207 130.505011,49.0530405 131.59268,49.8088745 C133.348917,51.1116936 135.723828,51.8178016 137.819338,51.8178016 L137.819338,51.8178016 Z M67.9889741,36.5519442 C67.9889741,34.0358126 66.7516256,31.6688588 65.3246833,29.9185064 C64.5164153,28.923988 63.6582542,27.7802919 63.6582542,26.5073083 C63.6582542,25.5127899 64.5164153,24.70723 65.7038708,24.70723 C66.3724381,24.70723 67.0809199,24.9956403 67.7494873,25.5625158 C68.747349,26.3183498 70.2241844,26.1293913 71.0324524,25.1348729 C71.7908273,24.1403545 71.6012336,22.6684673 70.6033718,21.8629074 C68.9868358,20.6297045 67.130813,20.0628291 65.5641701,20.0628291 C61.7623169,20.0628291 58.7088601,22.817645 58.7088601,26.5073083 C58.7088601,28.923988 59.8963155,31.1019833 61.3731509,32.9517876 C62.1315258,33.946306 62.9896869,35.2292347 62.9896869,36.651396 C62.9896869,38.1730092 61.892039,39.406212 60.4650967,39.406212 C59.5171281,39.406212 58.7088601,38.8890624 58.1301003,38.0835025 C57.3717254,37.0889841 55.8449969,36.8502997 54.8471352,37.5663529 C53.8492735,38.3221869 53.6097867,39.8438001 54.3282471,40.8383185 C55.8549755,42.8770812 58.0901858,44.0605581 60.4650967,44.0605581 C64.4665222,44.0506129 67.9889741,41.0073866 67.9889741,36.5519442 L67.9889741,36.5519442 Z M165.699594,36.5519442 C165.699594,34.0358126 164.462246,31.6688588 163.035303,29.9185064 C162.227035,28.923988 161.368874,27.7802919 161.368874,26.5073083 C161.368874,25.5127899 162.087335,24.70723 163.085196,24.70723 C163.653978,24.70723 164.322545,24.8961885 164.941219,25.4232832 C165.939081,26.1791172 167.415916,25.9901587 168.224184,24.9956403 C168.982559,24.0011219 168.792966,22.5292347 167.795104,21.7236748 C166.228461,20.5401979 164.512139,20.0628291 163.085196,20.0628291 C159.373151,20.0628291 156.429459,22.817645 156.429459,26.5073083 C156.429459,28.923988 157.666807,31.1019833 159.143643,32.9517876 C159.902018,33.946306 160.710286,35.2292347 160.710286,36.651396 C160.710286,38.1730092 159.612638,39.406212 158.145781,39.406212 C157.197812,39.406212 156.239865,38.8393365 155.671084,38.0337766 C154.912709,37.0392582 153.385981,36.8005738 152.388119,37.516627 C151.390257,38.272461 151.15077,39.7940742 151.869231,40.7885926 C153.395959,42.8273553 155.77087,44.0605581 158.145781,44.0605581 C162.177142,44.0506129 165.699594,41.0073866 165.699594,36.5519442 L165.699594,36.5519442 Z M129.06809,41.8626724 L133.019623,29.5306442 C133.927677,26.7360475 134.157185,25.5525706 134.157185,24.4586004 C134.157185,21.8032363 132.251269,20.331349 130.065952,20.331349 C126.972581,20.331349 123.689616,23.2253976 119.548489,29.7196027 L121.404512,23.8917249 C121.7837,22.708248 121.075218,21.3358126 119.877784,20.9081697 C118.690328,20.5302527 117.263386,21.2363608 116.884199,22.4695636 L112.603372,35.7463843 L111.126536,40.3410593 C110.557755,42.0914117 111.934804,43.5632989 113.501447,43.5632989 C114.259822,43.5632989 114.92839,43.1853819 115.447278,42.4693287 C121.294747,33.8369089 125.725254,28.2477155 128.718839,26.2586787 C128.619053,26.7360475 128.479352,27.302923 128.239865,28.0090311 L124.288333,40.3410593 C123.859252,41.623988 124.617627,43.0461493 125.904869,43.4737923 C127.212067,43.8517092 128.63901,43.1456012 129.06809,41.8626724 L129.06809,41.8626724 Z M93.8136355,41.8626724 L95.0509841,38.1133381 C97.2363013,31.7583655 100.99824,27.2531971 105.75804,25.2641603 C107.045282,24.6972848 107.663956,23.1756717 107.13509,21.9026881 C106.566308,20.6197594 105.03958,20.003158 103.762317,20.5302527 C101.816487,21.2860867 100.239865,22.9469324 98.6732221,25.9802136 L99.3417895,23.8917249 C99.720977,22.708248 99.0124951,21.3358126 97.8150611,20.9081697 C96.6276056,20.5302527 95.2006633,21.2363608 94.8214759,22.4695636 L91.5385108,32.6136513 L89.0638137,40.3410593 C88.6347332,41.623988 89.3931081,43.0461493 90.6803497,43.4737923 C91.9576127,43.8517092 93.384555,43.1456012 93.8136355,41.8626724 L93.8136355,41.8626724 Z M202.420906,41.8626724 L203.658254,38.0735573 C205.843571,31.8180366 209.655403,27.3128682 214.554904,25.2741055 C215.981847,24.6575041 216.650414,23.2353428 216.121547,21.9126333 C215.552766,20.6297045 213.886337,20.0131031 212.549202,20.5401979 C210.453693,21.3457578 208.787263,23.1458361 207.170727,26.328295 L207.929102,23.9116153 C208.30829,22.7281384 207.599808,21.355703 206.402374,20.9280601 C205.214919,20.5501431 203.787976,21.2562511 203.408789,22.489454 L200.125824,32.6335417 L197.651127,40.3609497 C197.222046,41.6438784 197.980421,43.0660397 199.267663,43.4936826 C200.564883,43.8517092 201.991825,43.1456012 202.420906,41.8626724 L202.420906,41.8626724 Z M71.0324524,50.1171752 L73.2177695,43.2848338 C76.4508415,34.274497 81.8792093,26.2686239 85.9205493,25.5028447 C86.0203355,25.8310358 86.0602499,26.1194461 86.0602499,26.4476372 C86.0602499,31.4301744 81.6397225,38.163064 77.2092164,39.1575824 C75.8820604,39.4459927 75.0238993,40.8184281 75.3033006,42.1013569 C75.5926805,43.4240663 76.9697296,44.2793522 78.2569713,44.000887 C84.6333077,42.5787257 91.0096441,33.6678408 91.0096441,26.218898 C91.0096441,21.8131814 88.8642414,20.3412942 86.5392236,20.3412942 C83.9747189,20.3412942 81.3104281,22.1910984 78.7359449,25.463064 L79.2149185,23.9016701 C79.594106,22.7181932 78.8856241,21.3457578 77.6482756,20.9181149 C76.4608202,20.5401979 75.0338779,21.246306 74.6546904,22.4795088 L69.89489,37.2679974 L66.2726519,48.595562 C65.8934645,49.8784908 66.6019463,51.3006521 67.8891879,51.728295 C69.1764296,52.106212 70.6033718,51.3901587 71.0324524,50.1171752 L71.0324524,50.1171752 Z M194.717413,24.4685456 C194.817199,24.4685456 194.9569,24.4685456 195.046708,24.5182715 C195.096601,24.70723 195.146494,24.9459144 195.146494,25.1845988 C195.146494,28.168154 191.723828,30.4456012 187.961889,31.7285299 C189.199238,27.7802919 191.763742,24.4685456 194.717413,24.4685456 L194.717413,24.4685456 Z M172.594819,44.0506129 C174.450842,44.0506129 177.20494,43.245053 180.348204,38.7398847 C181.106579,37.6061337 180.827178,36.0347946 179.72953,35.2789606 C178.591968,34.5231266 177.015346,34.8015918 176.256971,35.895562 C175.25911,37.3674493 174.351055,38.3122417 173.542787,38.8393365 C173.542787,38.3619677 173.642574,37.8448181 173.782274,37.3674493 L177.584127,25.463064 L182.583415,25.463064 C183.870656,25.463064 184.958325,24.3690937 184.958325,23.1358909 C184.958325,21.9026881 183.860678,20.8087179 182.583415,20.8087179 L179.060963,20.8087179 L180.916986,15.0206208 C181.346066,13.737692 180.587691,12.3155307 179.30045,11.8878878 C178.013208,11.5099708 176.586266,12.2160789 176.157185,13.4990076 L173.822189,20.7987727 L172.105866,20.7987727 C170.818625,20.7987727 169.730956,21.8927429 169.730956,23.1259457 C169.730956,24.3591486 170.828603,25.4531188 172.105866,25.4531188 L172.345353,25.4531188 L168.872794,36.2635338 C168.393821,37.6856951 168.204227,39.0183498 168.204227,39.8239097 C168.214206,42.3897672 169.880635,44.0506129 172.594819,44.0506129 L172.594819,44.0506129 Z M112.134377,20.9081697 C110.847135,20.5302527 109.420193,21.2363608 108.991112,22.5192895 L103.283343,40.3510045 C102.854263,41.6339332 103.612638,43.0560945 104.899879,43.4837374 C106.187121,43.8616544 107.614063,43.1555464 108.043144,41.8726176 L113.750913,24.0409027 C114.179993,22.7579739 113.41164,21.3358126 112.134377,20.9081697 L112.134377,20.9081697 Z M188.051697,44.0506129 C190.04742,44.0506129 192.242716,43.1456012 195.425895,40.3510045 C196.423757,39.4459927 196.523543,37.8348729 195.615489,36.8403545 C194.707435,35.8458361 193.090899,35.7463843 192.093037,36.651396 C190.476501,38.1232832 189.139366,39.0680757 187.902018,39.4957186 C187.23345,38.6404328 187.09375,37.40723 187.09375,36.4127116 C194.707435,34.8015918 199.846422,30.2466975 199.846422,25.5525706 C199.846422,22.5690154 197.800806,20.3412942 194.467948,20.3412942 C188.041718,20.3412942 182.144355,28.168154 182.144355,37.029313 C182.154334,41.9123984 184.818625,44.0506129 188.051697,44.0506129 L188.051697,44.0506129 Z M113.940507,18.3920381 C115.796529,18.3920381 117.313279,16.870425 117.313279,14.98084 C117.313279,13.1310358 115.786551,11.6193678 113.940507,11.6193678 C112.034591,11.6193678 110.517841,13.140981 110.517841,14.98084 C110.517841,16.8803702 112.034591,18.3920381 113.940507,18.3920381 L113.940507,18.3920381 Z M34.7701573,8.6457578 C34.2512692,8.6457578 33.7623169,8.31756672 33.5926805,7.80041715 C33.552766,7.69102013 33.5228301,7.59156829 33.4829157,7.48217127 L33.472937,7.4622809 C33.2833433,6.89540541 33.0538351,6.17935216 32.664669,5.47324409 C31.7566149,3.83228873 30.2398651,2.73831849 28.5035857,2.46979852 C27.8250397,2.37034668 27.3560447,1.7338549 27.4558308,1.05758239 C27.555617,0.381309871 28.1942485,-0.0861137778 28.8727945,0.0133380624 C31.387406,0.391255055 33.5627446,1.94270376 34.8400076,4.26987683 C35.3489171,5.18483376 35.638297,6.0898455 35.8278907,6.68655654 L35.8378693,6.7163921 C35.8678052,6.81584394 35.897741,6.90535059 35.9376555,7.00480243 C36.1571851,7.65123939 35.8079335,8.35734746 35.1593234,8.57614151 C35.03958,8.62586743 34.8998793,8.6457578 34.7701573,8.6457578 Z M31.8364438,62.4591486 C32.2954602,62.3099708 32.7544766,62.1508479 33.2035144,61.9817797 C33.8421459,61.7331501 34.1614616,61.0170969 33.9119962,60.3706599 C33.6625308,59.7341681 32.9440703,59.4159222 32.2954602,59.6645518 C31.8963155,59.8137296 31.4871922,59.9629074 31.0780689,60.0921948 C29.2420033,60.6690154 27.3760019,60.9574258 25.5199791,60.9574258 C19.0538351,60.9574258 14.8029442,57.4766114 14.0146334,56.7705033 C13.6653818,56.4622026 13.3061516,56.1340115 12.9668786,55.8058204 C12.4779264,55.3284516 11.679637,55.3383968 11.2006633,55.8257108 C10.7216897,56.3130248 10.7316683,57.1086396 11.2206206,57.5860084 C11.599808,57.9539802 11.9789955,58.3020616 12.3581829,58.6401979 C13.2662371,59.4457578 18.1557596,63.453667 25.5199791,63.453667 C27.635446,63.4437218 29.7608914,63.1155307 31.8364438,62.4591486 Z M49.0096441,30.0477938 C48.9996655,30.0875746 48.9996655,30.1174101 48.9896869,30.1571908 C48.9797082,30.1969716 48.9697296,30.2466975 48.959751,30.3063686 C48.8400076,30.9826411 48.5705849,32.5738706 47.8820604,34.8513177 C47.0338779,37.6459144 45.8364438,40.5598533 44.319694,43.5235182 C42.2541202,47.5513177 40.1985251,50.6044892 38.0331651,52.8521008 C35.7380832,55.2289998 33.2234716,56.8202292 30.3396512,57.7351861 C28.7530511,58.2324453 27.1365151,58.4910201 25.5399363,58.4910201 C19.8820604,58.4910201 16.1799934,55.3682323 15.6910411,54.9306442 C10.2028016,50.1470107 7.24913091,43.0560945 5.99182514,40.0228134 L5.82218865,39.625006 C4.84428416,37.2878878 0.713136616,26.4078565 0.543500123,25.9404328 L0.543500123,25.9404328 L0.543500123,25.9404328 C0.523542889,25.8907069 0.503585654,25.8310358 0.473649802,25.7713647 C0.333949161,25.4133381 0.134376816,24.926024 0.0445692608,24.3591486 C-0.164981701,23.0264939 0.37386363,21.7932911 1.46153291,21.1567993 C1.93052792,20.8783341 2.46937325,20.7291564 2.99823997,20.7291564 C3.60693562,20.7291564 4.50501117,20.9181149 5.34321502,21.7932911 C5.65255215,22.1214822 5.89203897,22.4695636 6.0816327,22.7480287 C6.13152578,22.8275902 6.18141887,22.8972065 6.22133334,22.9568776 C6.58056356,23.464082 9.23487575,27.3625941 11.1208344,30.1373005 L6.490756,14.2548416 C6.47079877,14.1951705 6.45084153,14.1354994 6.4308843,14.0658831 C6.28120504,13.5885143 6.10158993,13.0017484 6.05169684,12.3652566 C5.94193205,10.8237531 6.76017867,9.55076954 8.13722785,9.11318145 C8.44656498,9.01372961 8.76588074,8.96400368 9.08519649,8.96400368 C9.69389214,8.96400368 10.8613904,9.16290737 11.7894018,10.4657265 C12.1087175,10.9132598 12.3482043,11.4204641 12.5677339,11.8580522 C12.5976698,11.9177233 12.617627,11.9674493 12.6475628,12.0271204 L12.6675201,12.0569559 L12.6774987,12.0867915 L18.7644552,25.6420773 L15.1621744,8.9540585 C14.912709,7.88992381 14.7829869,7.19376093 14.7829869,6.55726915 C14.7929656,4.77708121 15.9305279,3.81239836 16.9882613,3.50409766 C17.2876199,3.414591 17.5869784,3.37481026 17.8863369,3.37481026 L17.8863369,3.37481026 C18.5748615,3.37481026 19.8521245,3.61349468 20.7402214,5.22461449 C21.0296013,5.75170924 21.2591095,6.37825584 21.5884039,7.2733224 C21.9576127,8.30762154 24.6219035,15.9654132 26.6375842,21.7634555 C25.809359,16.6416858 24.8214759,10.5552331 24.7616042,10.0878095 C24.741647,9.95852209 24.7316683,9.83917988 24.7117111,9.71983767 C24.6219035,9.04356516 24.532096,8.40707338 24.6019463,7.76063642 C24.7516256,6.28874918 25.7095728,5.21466931 27.0966006,4.94614934 C27.296173,4.9063686 27.4957453,4.88647823 27.685339,4.88647823 C28.234163,4.88647823 29.6112122,5.05554636 30.4993091,6.65672099 C30.7787104,7.15398019 30.9483469,7.69102013 31.1179834,8.2081697 C31.1578978,8.32751191 31.1978123,8.4567993 31.2377268,8.58608669 C31.6368715,9.74967322 36.3268216,24.6077782 38.4422884,31.3307226 L42.4736498,27.3824845 L42.4836284,27.3725393 L42.493607,27.3625941 C42.5335215,27.3327586 42.573436,27.2830327 42.6233291,27.2333067 C43.3118537,26.547089 44.449416,25.3934477 46.0260375,25.3934477 C46.405225,25.3934477 46.7744338,25.463064 47.1137068,25.5923514 C48.281205,26.0398847 49.03958,27.1040193 49.1393661,28.436674 C49.1892592,29.0930562 49.0794944,29.6698768 49.0096441,30.0477938 Z M33.3033006,39.8537453 C33.0438565,40.0725393 32.744498,40.2117719 32.4251822,40.2117719 C32.1058665,40.2117719 31.7765721,40.0924297 31.5370853,39.8438001 C31.0581117,39.3564861 31.0581117,38.5708165 31.5570425,38.0835025 L36.4365864,33.3098142 C35.2690881,29.6002605 29.301875,10.6745753 28.8628159,9.40159178 C28.5235429,8.3971282 28.2940347,7.38271943 27.6653818,7.38271943 C27.6254673,7.38271943 27.5855529,7.38271943 27.5456384,7.39266461 C26.8371566,7.53189719 27.0367289,8.4567993 27.2063654,9.77950878 C27.296173,10.5154524 30.1400789,28.0090311 30.1400789,28.0090311 L26.5278194,29.1726176 C26.5278194,29.1726176 19.8022314,9.76956359 19.2035144,8.11866304 C18.6546904,6.59704989 18.3752891,5.87105145 17.856401,5.87105145 C17.7965293,5.87105145 17.726679,5.88099664 17.6668073,5.90088701 C17.0980261,6.06995513 17.1778551,6.7163921 17.5670211,8.42696375 L22.3368002,30.5251627 L18.7145621,31.6986944 L10.3923953,13.1111454 C9.99325066,12.2956403 9.63402044,11.4502997 9.07521787,11.4502997 C9.01534617,11.4502997 8.95547446,11.4602449 8.88562414,11.4801352 C8.2270354,11.6889841 8.62618009,12.7531188 8.86566691,13.5387883 L14.5534787,33.0512394 L10.8813476,34.2446615 C10.8813476,34.2446615 4.71456213,25.1448181 4.1757168,24.3989293 C3.81648658,23.9016701 3.43729913,23.2154524 2.97828273,23.2154524 C2.88847518,23.2154524 2.79866762,23.2353428 2.69888145,23.2950139 C2.17999335,23.6033146 2.64898836,24.5282167 2.84856071,25.0553114 C2.84856071,25.0553114 7.11940889,36.3331501 8.09731338,38.6603232 L8.26694987,39.0581305 C9.46438394,41.9322887 12.2683754,48.6552331 17.3175557,53.0609497 C17.4772136,53.2101274 20.6504139,55.9947789 25.5100005,55.9947789 C26.7573276,55.9947789 28.1144196,55.8157656 29.5613191,55.3582872 C34.4707988,53.8068385 38.2127802,49.9381619 42.0745051,42.3897672 C45.6468501,35.4181932 46.3253961,30.7638471 46.5149898,29.7295479 C46.614776,29.192508 46.8542628,28.1979896 46.195674,27.94936 C46.1358023,27.9294696 46.065952,27.9195244 46.0060803,27.9195244 C45.3774274,27.9195244 44.5392236,28.8643169 44.1999506,29.192508 L33.3033006,39.8537453 Z" id="Logo"></path>
                        </g>
                    </g>
                </g>
            </g>
        </g>
    </g>
</svg>